<svg width="10" height="10" viewBox="0 0 10 10" fill="none" xmlns="http://www.w3.org/2000/svg">
<path d="M1.25 8.33325C1.25 8.79284 1.62375 9.16658 2.08333 9.16658H7.91667C8.37625 9.16658 8.75 8.79284 8.75 8.33325V2.08325C8.75 1.62367 8.37625 1.24992 7.91667 1.24992H7.08333C7.08333 1.13941 7.03943 1.03343 6.96129 0.955291C6.88315 0.877151 6.77717 0.833252 6.66667 0.833252H3.33333C3.22283 0.833252 3.11685 0.877151 3.03871 0.955291C2.96057 1.03343 2.91667 1.13941 2.91667 1.24992H2.08333C1.62375 1.24992 1.25 1.62367 1.25 2.08325V8.33325ZM2.08333 2.08325H2.91667V2.91659H7.08333V2.08325H7.91667V8.33325H2.08333V2.08325Z" fill="#F9A166"/>
<path d="M5.95522 4.28955L5.00022 5.24455L4.04522 4.28955L3.45605 4.87872L4.41106 5.83372L3.45605 6.78872L4.04522 7.37788L5.00022 6.42288L5.95522 7.37788L6.54439 6.78872L5.58939 5.83372L6.54439 4.87872L5.95522 4.28955Z" fill="#F9A166"/>
</svg>
