<svg width="11" height="11" viewBox="0 0 11 11" fill="none" xmlns="http://www.w3.org/2000/svg">
<path d="M10.4262 2.39625L4.63849 8.189L2.48777 6.03828L3.20299 5.32306L4.63849 6.75857L9.71096 1.68611L10.4262 2.39625ZM9.30516 4.95277C9.3711 5.2419 9.41168 5.54625 9.41168 5.85567C9.41168 8.0977 7.59574 9.91364 5.35371 9.91364C3.11168 9.91364 1.29574 8.0977 1.29574 5.85567C1.29574 3.61364 3.11168 1.7977 5.35371 1.7977C6.15516 1.7977 6.89574 2.03103 7.52472 2.43176L8.25516 1.70132C7.40625 1.10254 6.39254 0.781772 5.35371 0.783208C2.55371 0.783208 0.28125 3.05567 0.28125 5.85567C0.28125 8.65567 2.55371 10.9281 5.35371 10.9281C8.15371 10.9281 10.4262 8.65567 10.4262 5.85567C10.4262 5.25205 10.3146 4.67379 10.1218 4.1361L9.30516 4.95277Z" fill="#20B1CE"/>
</svg>
